# xmcd CD database file
#
# Track frame offsets:
#	150
#	15325
#	33595
#	50487
#	63398
#	79758
#	93146
#	105344
#	122361
#	136722
#	152570
#	165944
#
# Disc length: 2387 seconds
#
# Revision: 0
# Processed by: cddbd v1.5.2PL0 Copyright (c) Steve Scherf et al.
# Submitted via: CDex 1.51
#
DISCID=7b09510c
DTITLE=Waymore Clayton - Modern Day Outlaw
DYEAR=1900
DGENRE=Country
TTITLE0=Looking For Suzanne
TTITLE1=Nothing Without You
TTITLE2=Modern Day Outlaw
TTITLE3=Bright Morning Light
TTITLE4=To Fence You In
TTITLE5=Holding Dynamite
TTITLE6=Rainy Day Woman
TTITLE7=Back To Back
TTITLE8=This Time
TTITLE9=Amanda
TTITLE10=Games People Play
TTITLE11=Greenhorn Country
EXTD=
EXTT0=
EXTT1=
EXTT2=
EXTT3=
EXTT4=
EXTT5=
EXTT6=
EXTT7=
EXTT8=
EXTT9=
EXTT10=
EXTT11=
PLAYORDER=
